<svg xmlns="http://www.w3.org/2000/svg" viewBox="-300 -100 2200 2200" xml:space="preserve"><path fill="#214185" d="M1533.093 928.94c-.06-9.342-.12-18.684-.204-28.816-.283-1.59-.54-2.387-.796-3.185-.06-9.341-.12-18.683-.205-28.815-.282-1.59-.539-2.387-.795-3.185-.06-12.008-.12-24.016-.205-36.815-.282-1.59-.539-2.387-.795-3.185-.025-12.631-.05-25.263.249-38.234 17.185 9.806 34.02 19.993 50.915 30.082 8.781 5.243 17.666 10.313 26.503 15.461 0 0 .06-.038.063.392.06 3.26.17 6.092.17 8.923.007 248.81.01 497.62-.001 746.43 0 12.029.98 10.998-11.106 10.998q-791.175.013-1582.352.008c-2 0-4.006-.12-5.998-.004-4.132.24-5.757-1.763-5.535-5.727.111-1.993 0-3.999 0-5.998-.001-78.16.011-156.32-.05-234.478-.003-2.931-.729-5.861-1.077-9.26.066-73.056.098-145.646.075-218.236 0-1.765-.619-3.53-.949-5.296 0-93.687 0-187.375.296-281.695 1.063-1.271 1.776-1.993 2.606-2.537 26.7-17.492 53.408-34.974 80.14-52.42 1.143-.747 2.522-1.132 4.462-1.979.212 2.444.472 4.047.472 5.65.019 68.154-.006 136.308.07 204.461.004 3.597-1.298 5.824-4.288 7.719-7.024 4.45-13.652 9.562-20.85 13.692-5.504 3.158-7.038 7.194-7.032 13.353.155 173.3.124 346.6.125 519.901 0 9.848.006 9.854 9.763 9.854q740.36.002 1480.72-.001c1.833 0 3.666-.054 5.498-.046 2.663.01 4.081-1.16 3.852-3.952.055-2.163.158-4.327.158-6.49q.01-259.047.003-518.094c0-1.831-.053-3.663-.113-6.315-1.3-2.276-2.568-3.732-3.836-5.188 0 0-.026.053-.182-.235-5.38-4.124-10.602-7.959-15.825-11.794-.708-5.325-1.417-10.65-2.15-16.764-.283-1.585-.54-2.383-.796-3.18-.06-17.009-.12-34.017-.204-51.816a21 21 0 0 0-.796-3.185M19.04 65.885s-.092-.457-.138-1.071c-2.3-8.701-4.555-16.788-6.81-24.875a45 45 0 0 1-.195-2.031c-1.295-5.136-2.55-9.552-3.805-13.97a43 43 0 0 1-.195-2.005C6.237 14.477 4.619 7.738 3 1c534.361 0 1068.723 0 1603.528.412.258 1.556.15 2.719-.126 3.84-4.662 19.012-9.45 37.993-13.94 57.044-.964 4.084-3.287 4.783-6.823 4.721-22.267-.386-44.534-.737-66.803-1.005-33.249-.4-66.498-.723-99.748-1.078-.057-6.674-.113-13.347-.21-20.868-.604-5.324-4.168-4.016-6.677-4.001-42.801.247-85.602.758-128.403.905-121.293.417-242.587.728-363.88 1.02-152.79.368-305.58.74-458.371.985-86.325.138-172.65.025-258.976.027-2 0-4 .08-5.998.029-3.131-.08-4.586 1.374-4.546 4.52.053 4.165 0 8.331-.035 12.497-.058 6.702-.259 6.938-7.161 6.94-52.995.015-105.99.022-158.985-.04-2.27-.002-4.538-.693-6.807-1.063M695.834 1916c.027-3.038.053-6.076.054-9.891-.282-1.574-.539-2.372-.795-3.17-.06-37.341-.12-74.683-.205-112.816-.282-1.588-.539-2.386-.795-3.184-.016-16.648-.032-33.296.32-50.359 9.092 4.223 17.817 8.862 26.542 13.5 0 0 .02-.054.16.305.72 4.271 1.785 8.18 1.812 12.096.434 63.22.75 126.442 1.058 189.663.069 13.981.1 27.964-.08 41.944-.03 2.312-1.24 4.608-1.905 6.912 0 0-.5 0-.83-.333a1373 1373 0 0 0-15.125-11.728c-.017.022.033.013-.152-.268-5.74-4.44-11.294-8.6-16.86-12.731-.012.026.045.012-.14-.27-4.406-3.44-8.627-6.598-12.86-9.73-.012.026.045.012-.14-.27-7.073-5.44-13.96-10.598-20.86-15.73-.012.026.045.012-.14-.27-5.74-4.44-11.294-8.598-16.86-12.73-.012.026.045.012-.14-.269-3.072-2.44-5.96-4.599-8.86-6.731-.012.026.045.012-.135-.264-1.738-1.438-3.296-2.6-4.866-3.736-.011.027.046.012-.14-.27-5.405-4.106-10.626-7.932-15.86-11.73-.011.026.046.012-.139-.269-3.072-2.44-5.96-4.599-8.86-6.731-.012.027.045.012-.14-.269-2.739-2.106-5.293-3.932-7.86-5.732-.012.027.045.013-.135-.263-1.738-1.438-3.296-2.6-4.866-3.736-.011.027.046.012-.14-.27-5.407-4.116-10.63-7.95-15.975-11.97-.312-.416-.539-.6-.993-1.02-4.42-3.442-8.65-6.605-12.892-9.74-.011.026.046.012-.14-.27-7.072-5.44-13.96-10.598-20.86-15.73-.011.026.046.012-.14-.27-5.738-4.44-11.293-8.598-16.854-12.73-.007.027.042-.006-.144-.285-4.88-3.983-9.574-7.686-15.246-12.162-.613 10.034-1.369 18.259-1.57 26.497-.495 20.282-.764 40.57-1.07 60.856-.37 24.448-.623 48.898-1.138 73.343-.04 1.886-1.68 5.31-2.7 5.357-8.627.402-17.285.23-25.93.08-.812-.014-1.605-1.057-2.406-1.622.055-3.159.158-6.317.159-9.476.025-77.513.04-155.025.37-233.119 1.755-.073 3.43.12 4.6.991 19.7 14.635 39.289 29.418 59.014 44.018 6.09 4.508 12.513 8.566 18.783 12.83 0 0-.024.038.103.356 5.384 4.094 10.641 7.869 15.898 11.644 0 0-.025.038.102.356 5.384 4.094 10.641 7.869 15.898 11.644 0 0-.025.038.102.356 5.384 4.094 10.64 7.869 15.898 11.644 0 0-.025.038.102.356 5.384 4.094 10.641 7.869 15.898 11.644 0 0-.028.04.101.358 5.386 4.093 10.642 7.868 15.899 11.642 0 0-.028.04.101.358 5.386 4.093 10.642 7.868 15.899 11.642 0 0-.028.04.101.358 5.386 4.093 10.642 7.868 15.899 11.642 0 0-.028.04.101.358 5.386 4.093 10.642 7.868 15.899 11.642 0 0-.028.04.101.358 5.253 4.337 10.377 8.356 16.56 13.206zm-385.999-30.977.166-105.589c.008-5.146.03-10.293.45-15.906 3.44.712 6.58 1.678 9.492 3.11 7.657 3.763 15.215 7.73 22.813 11.615 0 0 .064-.039.067.389.06 2.256.168 4.085.168 5.914.009 69.241-.047 138.483.122 207.723.012 4.897-1.092 7.893-6.113 8.721-111.02 0-222.042 0-333.531-.469-.47-34.23-.445-67.993-.521-101.755-.006-2.593-.726-5.184-1.074-8.243.066-29.393.108-58.32.074-87.245-.002-1.763-.618-3.525-.948-5.288 0-7.021 0-14.042.367-21.56 3.603-2.142 6.903-3.673 10.061-5.454 5.69-3.208 11.297-6.565 18.041-10.504.23 3.913.51 6.475.511 9.036.025 67.824.02 135.647.021 203.47 0 2 .108 4.004.007 5.998-.184 3.649 1.527 5.188 5.101 5.008 1.994-.1 3.999.013 5.998.004 70.128-.33 140.256-.679 210.384-.987 16.33-.072 32.661-.01 48.992-.014 1.5 0 3-.053 4.499-.046 2.663.014 4.081-1.159 3.852-3.951.072-30.004.143-60.008.436-90.73.335-1.562.45-2.405.565-3.247m980.257-132.084c-.014-1.033-.027-2.066.44-3.502 68.102-.748 135.723-1.117 203.345-1.422 20.994-.095 41.99-.017 62.984-.014 15.663.002 31.326-.038 46.988.048 5.053.027 5.617 1.115 3.79 5.696-1.97 4.94-4.09 9.85-5.593 14.937-1.211 4.097-3.458 5.423-7.593 5.38-16.16-.17-32.325-.064-48.487-.062-26.66.002-53.32-.01-79.98.014-6.74.006-6.943.244-6.975 7.12-.032 6.831-.01 13.663-.01 20.494-.001 63.651.024 127.302-.087 190.953-.005 2.807-1.248 5.613-1.914 8.419-7.021 0-14.042 0-21.531-.469-.47-73.216-.467-145.964-.476-218.713 0-7.778-.032-7.809-7.78-7.811-40.286-.012-80.572.014-120.858-.054-2.77-.005-5.54-.674-8.31-1.034 0 0-.015.06-.037-.319-2.654-6.806-5.285-13.234-7.916-19.661"/><path fill="#214185" d="M1511 2001c-14.02 0-28.042 0-42.536-.4-.525-1.467-.578-2.534-.59-4.067.07-4.79.12-9.113.123-13.436.034-67.344.061-134.687.467-202.202 2.673-.413 4.97-.86 7.266-.863 37.465-.043 74.93-.031 112.395-.028 1.332 0 2.664.012 3.995.064 3.097.12 4.219 1.491 3.01 4.552-1.099 2.78-2.217 5.579-2.98 8.461-1.16 4.375-3.652 6.046-8.286 6-20.479-.2-40.96-.112-61.441-.07-12.47.025-11.41-1.14-11.413 11.168-.021 63.607-.01 127.214-.01 190.821m-210.908-216.061c-.012-.718-.025-1.437.442-2.53 11.269-.712 22.057-1.202 32.85-1.359 29.265-.425 58.532-.736 87.798-1.033 8.8-.09 8.815 0 8.815 8.765q.004 106.11.003 212.218c-12.688 0-25.375 0-38.535-.4-.526-1.467-.578-2.534-.63-3.6.055-19.953.155-39.906.156-59.86.001-43.068-.048-86.137-.115-130.064-.454-5.012-3.723-4.017-6.147-4.025-23.079-.076-46.159-.007-69.238-.071-9.667-.027-8.596 1.088-11.745-8.3-1.101-3.286-2.43-6.497-3.654-9.741m-26-64.001c-.014-.718-.029-1.436.439-2.53 36.26-.716 72.04-1.104 107.82-1.387 48.436-.383 96.873-.732 145.31-1 22.316-.123 44.635.069 66.951-.067 8.465-.051 16.925-.62 25.388-.954 0 2.042 0 4.084-.297 6.737-2.509 4.665-5.055 8.577-6.838 12.81-1.734 4.118-4.186 5.538-8.706 5.549-84.804.199-169.608.583-254.412.894-19 .07-38 .02-57-.003-2.496-.003-4.992-.175-7.488-.27 0 0-.103.037-.123-.273-3.694-6.708-7.37-13.107-11.044-19.506M423.834 1997c.055-15.633.159-31.267.157-46.9-.005-51.395-.048-102.79-.103-154.977-.282-1.588-.539-2.386-.795-3.184-.015-4.984-.03-9.969.28-15.58 9.42-5.064 18.482-9.572 27.622-13.916 6.645-3.16 7.073-2.896 6.976 4.59-.254 19.776-.79 39.548-.932 59.324-.42 58.214-.703 116.429-1.039 174.643-10.354 0-20.708 0-31.535-.4-.526-1.467-.578-2.534-.63-3.6m313.999 0c.071-15.67.143-31.34.436-47.73.335-1.562.45-2.405.565-3.247l.165-111.636c.016-10.466.032-20.932.27-32.117.335-1.562.45-2.405.565-3.247.07-12.676.14-25.352.592-38.474 9.068 4.048 17.864 8.35 26.347 13.2 1.686.965 2.953 3.99 3.065 6.134.379 7.304.16 14.64.16 21.964.001 63.581.025 127.162-.085 190.744-.005 2.804-1.248 5.606-1.914 8.409-5.688 0-11.376 0-17.718-.335-2.677-.78-4.726-1.135-6.717-1.696-1.941-.547-3.823-1.304-5.731-1.969m684.254-1684.066c-.05-.436-.101-.871-.189-1.954-.293-1.445-.55-2.243-.806-3.04-.06-1.38-.118-2.76-.204-4.873a22 22 0 0 0-.796-3.128c-.06-1.379-.118-2.758-.204-4.872-.283-1.532-.54-2.33-.796-3.128a55 55 0 0 1-.206-2.007c-.349-4.558-3.336-3.924-5.686-3.883-14.804.253-29.605.812-44.41.917-58.13.414-116.262.652-174.393 1.043-37.3.25-74.6.67-111.9.98-9.49.08-9.52.02-9.493 9.634.325 120.956.627 241.913 1.002 362.87.28 90.46.76 180.92.963 271.38.197 87.488.166 174.975.095 262.462-.001 1.189-1.688 3.223-2.829 3.414-4.408.735-8.912 1.175-13.384 1.202-66.463.399-132.926.762-199.39 1.037-91.293.379-182.587.686-273.88.998-14.831.051-29.663-.031-44.494-.052-.058-38.673-.116-77.347-.2-116.81a21 21 0 0 0-.795-3.185c-.031-9.987-.089-19.975-.089-29.963-.006-120.525-.003-241.05-.008-361.574 0-3.162-.053-6.325-.108-10.278-.282-1.59-.539-2.387-.795-3.185-.031-58.396-.058-116.792-.095-175.188-.019-30.612-.055-61.224-.11-92.627a21 21 0 0 0-.795-3.185c-.06-36.668-.12-73.336-.217-110.862-.601-5.334-4.163-4.015-6.674-4.016-110.982-.066-221.965-.056-332.947-.054-.833 0-1.666.053-2.499.04-3.026-.044-4.58 1.293-4.73 4.457-.189 3.977-.677 7.94-.998 11.91-.575 7.118-1.002 7.571-8.105 7.576-30.495.018-60.993-.239-91.483.186-7.518.105-12.99-.797-14.348-9.237-.056-.742-.112-1.484-.201-2.986-1.289-5.178-2.544-9.596-3.799-14.014-.056-.742-.112-1.483-.202-2.981-1.289-5.178-2.543-9.598-3.798-14.02a44 44 0 0 1-.195-2.03c-1.295-5.136-2.55-9.552-3.805-13.97-.056-.74-.112-1.482-.199-2.914a23 23 0 0 0-.8-3.085c-.014-1.033-.028-2.066.439-3.502 172.048-.413 343.615-.424 515.182-.43 1.165 0 2.592-.363 3.438.17 1.447.915 3.136 2.21 3.617 3.703.636 1.969.227 4.282.228 6.447Q586 387.75 586 519.174c0 1.999.09 4 .015 5.996-.126 3.355 1.387 4.844 4.773 4.828 5.66-.026 11.321.146 17.008.217.025-.018-.014-.067.007.393.08 13.283.184 26.106.188 38.93.019 61.795.043 123.59-.057 185.384-.007 4.397.688 7.481 5.779 7.963 5.118.485 10.214 1.213 15.318 1.852 2.866.36 4.02-.982 3.842-4.205.068-2.299.121-4.13.121-5.962q.007-266.54-.003-533.08c0-2.164-.103-4.327-.156-6.88-1.037-1.428-1.956-3.176-3.14-3.38-4.076-.699-8.243-1.152-12.38-1.18-60.1-.4-120.199-.75-180.3-1.04-76.755-.372-153.511-.672-230.267-1.024-3.49-.016-7.028.082-10.455-.45-3.364-.52-4.221 1-4.242 3.783-.039 5.33-.026 10.66-.058 15.99-.046 7.376-.3 7.597-7.56 7.692-25.122.326-50.244.672-75.367 1.014-.998.013-1.997.068-2.995.103l-45.795 1.586s-.16.053-.168-.261c-4.01-13.377-8.014-26.44-12.017-39.504a45 45 0 0 1-.195-2.022c-2.295-8.134-4.55-15.556-6.805-22.978-.01-.416-.02-.832.44-1.577 9.602-.673 18.732-1.26 27.865-1.323 59.425-.407 118.852-.709 178.278-1.03 63.756-.345 127.512-.828 191.269-.969 76.275-.169 152.55-.042 228.825-.028 2.66 0 5.322.173 7.983.266 0 0 .08-.05.076.371.056 3.417.164 6.414.165 9.411.008 113.292-.004 226.584.022 339.876.003 13.458-1.372 11.967 12.035 12.056 8.937.06 8.947.024 8.948 9.174q.003 105.21.004 210.422c0 2 .072 4 .036 5.997-.05 2.837 1.177 4.237 4.126 4.424 6.787.43 13.567 1.006 20.34 1.626 2.87.263 3.458-1.294 3.33-3.637.055-2.497.159-4.994.159-7.49q.01-304.54.003-609.079c0-2.164-.054-4.33-.118-7.347-1.068-1.9-1.964-3.623-3.16-3.864-3.563-.717-7.241-1.142-10.878-1.17-53.132-.397-106.264-.815-159.396-1.023-104.46-.409-208.92-.695-313.379-1.02-12.498-.039-24.997-.006-37.496-.002-1.333 0-2.667.072-3.998.03-3.132-.096-4.584 1.375-4.544 4.52.052 4.164 0 8.331-.035 12.497-.058 6.7-.26 6.936-7.163 6.938-46.66.016-93.322.023-139.983-.04-2.27-.003-4.538-.693-6.807-1.063 0 0-.091-.458-.134-1.056-.633-2.696-1.223-4.793-1.813-6.89-.056-.742-.112-1.484-.202-2.989-1.288-5.512-2.543-10.262-3.798-15.011-.056-.741-.112-1.483-.199-2.915-.287-1.49-.544-2.287-.8-3.085-.052-.437-.104-.874-.195-2.024-.962-3.8-1.884-6.888-2.806-9.976-.056-.741-.112-1.483-.199-2.915-.287-1.49-.544-2.287-.8-3.085a42 42 0 0 1-.193-2.01c-.628-2.796-1.218-4.893-1.808-6.99-.014-1.033-.027-2.066.44-3.502 33.11-.747 65.74-1.224 98.37-1.41 73.452-.417 146.904-.691 220.356-1.023 74.286-.335 148.571-.782 222.857-.97 65.149-.163 130.299-.035 195.448-.032 9.429 0 9.436.008 9.436 9.679q0 211.194.003 422.389c0 2.332.062 4.665.042 6.997-.027 3.056 1.522 4.56 4.497 4.864 2.808.288 5.594.868 8.406 1.011 9.031.46 9.05.404 9.05 9.484.005 70.814-.056 141.63.047 212.444.024 16.175-2.735 13.965 14.94 14.106.333.003.667-.03 1-.028 2.663.027 4.08-1.158 3.85-3.949.055-4.988.157-9.976.16-14.963.025-71.68.037-143.361.535-215.522 5.643-.504 10.803-.553 15.962-.54 2.716.007 4.615-.77 4.343-3.975.055-3.494.159-6.99.16-10.484.023-143.175.038-286.35.452-430.161 3.196-.875 5.995-1.333 8.792-1.322 70.938.291 141.875.638 212.812.961 75.102.343 150.204.713 225.306.996 99.757.376 199.514.679 299.27 1.013.667.002 1.34.07 1.999.002 4.453-.456 4.956 1.816 4.088 5.488-4.664 19.715-9.215 39.458-13.844 59.182-1.717 7.314-1.768 7.429-9.609 7.297-13.633-.23-27.263-.676-40.895-.953-18.296-.373-36.593-.645-54.889-1.007-16.463-.326-32.925-.716-49.388-1.077-.058-7-.116-14-.212-21.857-1.134-6.019-5.328-3.983-8.175-3.985-169.658-.102-339.316-.092-508.974-.09-9.72 0-9.726.006-9.726 9.892v610.468c0 1.5.068 3.002.014 4.5-.115 3.13 1.02 5.856 4.43 4.946 4.79-1.276 11.51 4.417 14.39-3.809.054-8.646.154-17.292.158-25.937.028-64.69.038-129.378.508-194.55 7.154-1.203 13.878-1.767 20.527-2.805 1.101-.172 1.879-2.42 2.806-3.708.055-3.327.158-6.654.16-9.981.023-115.675.037-231.35.535-347.504 205.083-.491 409.683-.503 614.282-.514 4.332 0 8.664-.035 12.996.019 6.093.075 6.805.926 5.402 6.773-3.566 14.867-7.237 29.708-10.793 44.577-1.759 7.357-1.923 7.504-9.541 7.64-15.967.283-31.932.717-47.9.946-26.961.385-53.924.658-80.887.979-.058-5.334-.116-10.667-.212-16.858-1.134-6.018-5.328-3.981-8.175-3.983-140.492-.105-280.983-.093-421.474-.091-9.216 0-9.225.01-9.225 9.393q-.003 267.734.001 535.467c0 1.667-.456 3.565.188 4.939.758 1.614 2.385 3.802 3.812 3.943 4.952.488 9.98.188 14.98.206 2.663.01 4.08-1.158 3.851-3.95.055-4.989.157-9.977.159-14.964.025-71.68.038-143.361.536-215.522 6.643-.504 12.802-.55 18.961-.54 2.716.004 4.616-.769 4.344-3.975.056-3.16.158-6.319.16-9.478.023-88.842.036-177.684.535-267.007 171.453-.49 342.423-.5 513.392-.509 1 0 2 .026 2.999.048 2.97.067 4.135 1.237 3.425 4.438-4.031 18.157-8.01 36.328-11.777 54.542-.812 3.926-2.715 5.03-6.5 5.017-35.66-.12-71.32-.097-106.98-.116"/><path fill="#214185" d="M1419.835 878.023c.071-20.012.143-40.023.435-60.753.335-1.562.45-2.405.565-3.247.071-20.345.143-40.69.435-61.753.335-1.562.45-2.405.565-3.247.07-9.676.14-19.352.578-29.443 7.372 3.708 14.453 7.71 21.37 11.977 19.093 11.781 38.12 23.674 57.172 35.523 0 0 .02-.055.165.333.39 3.686.849 6.983.85 10.281.033 245.648.034 491.296.02 736.944-.001 12.439 1.118 11.352-11.249 11.352-457.132.012-914.263.01-1371.395.01-2 0-4.013.128-5.996-.06-1.788-.169-3.542-.69-5.31-1.055-.014-127.991-.026-255.982-.044-383.973 0-3.332-.053-6.665-.108-10.789-.282-1.588-.539-2.386-.795-3.184-.031-63.197-.059-126.395-.096-189.593a7622 7622 0 0 0-.109-32.222c-.282-1.59-.539-2.387-.795-3.185-.016-43.648-.031-87.297.32-131.49 4.488-2.68 8.628-4.784 12.732-6.957 22.91-12.133 45.788-24.33 68.735-36.396 6.108-3.212 7.082-2.507 7.104 4.493.04 12.665.016 25.33.016 37.996 0 50.993-.09 101.987.116 152.98.025 6.118-1.45 10.284-6.956 13.537-5.98 3.534-11.133 8.453-17.04 12.135-5.048 3.146-6.24 7.154-6.235 12.844.142 166.48.115 332.959.116 499.438 0 9.473.009 9.48 9.638 9.48q632.423.001 1264.844-.001c1.833 0 3.666-.054 5.499-.046 2.663.01 4.081-1.16 3.852-3.952.055-2.33.159-4.66.159-6.99q.01-247.042.003-494.085c0-1.998-.053-3.996-.13-6.812-.28-1.426-.332-2.323-.772-2.596-8.991-5.587-18.028-11.103-27.055-16.633-.676-2.325-1.917-4.645-1.939-6.977-.156-16.638-.064-33.279.17-50.637.335-1.562.45-2.405.565-3.247"/><path fill="#214185" d="M1342.834 1388c.055-2.33.159-4.66.159-6.99q.01-241.542.003-483.085c0-1.998-.054-3.995-.131-6.814-1.55-2.203-2.831-4.03-4.587-4.89-8.007-3.927-16.147-7.583-24.239-11.336.003-26.966.007-53.931.23-81.615.336-1.562.451-2.405.566-3.247.071-25.012.142-50.023.435-75.753.335-1.562.45-2.405.565-3.247.07-16.676.14-33.352.598-50.479 2.377.352 4.532.886 6.33 1.998 22.46 13.903 44.736 28.114 67.39 41.693 5.392 3.232 6.963 6.776 6.96 12.745-.133 239.445-.113 478.89-.114 718.336 0 9.678-.007 9.705-9.933 9.68-132.608-.326-265.216-.646-397.824-.998-117.945-.313-235.89-.685-353.835-.993-137.106-.357-274.214-.673-411.32-1.01-1.333-.003-2.666-.04-3.999-.061-.029-2-.083-4-.083-5.998q-.005-363.972-.002-727.943c0-1.667.028-3.333.41-5.543 6.532-3.803 12.742-6.984 18.859-10.335 18.228-9.986 36.385-20.104 54.648-30.024 5.137-2.79 5.981-2.154 6.062 3.662.356 25.632.633 51.265 1.039 76.896.2 12.637.729 25.27.917 37.907.415 27.797.674 55.597 1.092 83.394.053 3.514-1.065 5.894-4.127 7.83-7.307 4.623-14.2 9.932-21.675 14.25-5.612 3.241-7.378 7.258-7.37 13.699.181 160.795.142 321.59.143 482.386 0 9.878.006 9.884 9.732 9.884q526.875.002 1053.752-.001c1.832 0 3.665-.054 5.498-.046 2.662.01 4.08-1.16 3.851-3.952"/><path fill="#214185" d="M1208.04 811.884c-.679-2.495-1.945-4.989-1.948-7.485-.094-70.468-.06-140.936.323-211.82 1.734.194 3.159.695 4.452 1.429 19.805 11.245 39.56 22.582 59.408 33.753 6.031 3.395 12.309 6.352 18.474 9.51 0 0 .077-.044.077.377.058 3.086.167 5.75.167 8.414q.012 356.193.002 712.386c0 11.362.808 10.547-10.562 10.547q-474.423.008-948.847.002c-2.5 0-4.999-.041-7.498-.063-.03-2.166-.084-4.332-.084-6.498q-.006-357.474-.001-714.947c0-1.833.03-3.666.362-6.128 12.513-7.77 24.698-14.928 36.907-22.045 14.22-8.289 28.451-16.556 42.705-24.785 1.38-.797 2.955-1.257 4.439-1.873.524 1.64 1.504 3.278 1.506 4.917.077 67.33.041 134.661.13 201.992.006 3.729-1.422 5.787-4.665 7.316-6.927 3.267-13.556 7.233-20.644 10.071-6.284 2.517-7.897 6.405-7.889 12.96.188 156.16.146 312.321.147 468.481 0 9.596.008 9.604 9.516 9.604q419.483.002 838.965-.001c1.833 0 3.667-.054 5.5-.046 2.662.01 4.081-1.159 3.852-3.952l.167-96.563c.007-3.816.031-7.632.269-12.167.335-1.562.45-2.405.565-3.247.055-3.16.157-6.32.158-9.48.025-90.185.04-180.37.277-271.273.335-1.562.45-2.405.565-3.247.026-25.364.052-50.728.031-76.91-.53-1.625-.814-2.738-1.522-3.194-8.399-5.402-16.86-10.705-25.305-16.035"/><path fill="#214185" d="M1108.039 753.884c-.14-.265-.325-.492-.927-1.078-1.938-1.572-3.506-2.747-5.073-3.922-.14-.265-.325-.492-.927-1.078-1.938-1.572-3.506-2.747-5.073-3.922-.344-2.106-.988-4.21-.99-6.316-.039-67.858-.016-135.716.395-204.038 1.932.068 3.543.445 4.988 1.158 9.353 4.611 18.677 9.28 27.996 13.96 18.181 9.134 36.352 18.287 54.527 27.432 0 0 .02-.055.165.333.39 3.52.849 6.65.85 9.782.033 227.659.03 455.318.03 682.977 0 10.824-.004 10.828-10.937 10.828q-367.988 0-735.976-.003c-2.333 0-4.666-.041-6.999-.063-.029-2-.083-4-.083-5.998q-.006-343.472-.002-686.943c0-1.667.028-3.333.408-5.545 17.997-10.566 35.626-20.592 53.265-30.6 7.48-4.245 14.982-8.452 23.699-13.366.261 3.607.6 6.11.601 8.614.03 63.16.024 126.32.024 189.48 0 15.359.108 15.554-13.368 23.014-5.562 3.079-7.793 6.775-7.784 13.38.198 148.485.152 296.97.153 445.455 0 9.566.008 9.574 9.545 9.574q309.469.002 618.937-.001c1.833 0 3.666-.054 5.499-.046 2.662.01 4.081-1.16 3.852-3.952.055-2.163.158-4.326.158-6.49q.01-220.55.003-441.1c0-1.83-.053-3.662-.126-6.308-1.973-2.616-3.902-4.417-5.83-6.218-.488-.542-.975-1.085-1.884-2.055-3.32-2.6-6.218-4.773-9.116-6.945m81.2 1245.922c-3.39.305-6.551.202-9.711.201-96.185-.028-192.37-.046-289.02-.093-.506-.75-.547-1.472-.63-2.554.012-3.519.114-6.678.115-9.836.025-77.178.04-154.356.373-232.164 19.277-11.303 38.424-21.664 57.103-32.808 7.249-4.325 14.465-5.984 22.687-5.626 13.78.599 27.578.825 41.37 1.035 26.945.41 53.89.78 80.836 1.01 17.648.151 35.298-.007 52.947.04 15.481.04 30.962.174 46.443.267 0 0-.248.147-.29.287-.262 7.916-.283 15.708-.92 23.449-.092 1.11-3.133 2.761-4.856 2.821-8.655.3-17.326.16-25.99.164-13.499.005-26.997-.073-40.494.015-46.298.3-92.6.426-138.888 1.297-5.617.105-11.396 3.897-16.685 6.75-11.846 6.389-23.36 13.393-35.165 19.865-3.88 2.127-4.526 5.062-4.519 9.024.088 47.659.056 95.318.055 142.977 0 13.998.196 28-.11 41.991-.107 4.864 1.41 6.216 6.204 6.172 52.795-.48 105.593-.71 158.389-1.108 31.3-.235 62.6-.67 93.9-.963 7.506-.07 7.652.086 7.59 7.484-.057 6.648-.328 13.294-.734 20.303M269.834 1955c.055-9.477.155-18.954.159-28.431.029-63.191.037-126.383.418-189.99 1.79.378 3.238 1.132 4.634 1.971 7.578 4.556 15.142 9.133 22.711 13.703 0 0 .065-.039.067.389.391 9.888 1.1 19.348 1.116 28.81.103 61.608.062 123.217.045 184.826-.002 6.397-.326 6.707-6.872 6.708-80.924.014-161.848.016-242.772-.04-2.1-.001-4.2-.692-6.3-1.061-.043-46.99-.084-93.98-.152-141.762-.282-1.588-.539-2.386-.795-3.184-.015-23.316-.03-46.632.272-70.578 8.7-5.722 17.07-10.835 25.47-15.901 5.27-3.18 6.097-2.718 6.148 3.534.354 44.133.744 88.266.992 132.4.139 24.662.02 49.326.028 73.99.003 8.593.017 8.611 8.501 8.612 59.493.006 118.986.003 178.479 0 1.333 0 2.666-.053 3.999-.045 2.663.015 4.081-1.158 3.852-3.951"/><path fill="#214185" d="M225.834 1923c.072-16.004.143-32.008.436-48.73.335-1.562.45-2.405.565-3.247l.166-108.1c.01-5.978.031-11.956.269-18.653.335-1.562.45-2.405.565-3.247.07-7.343.14-14.685.582-22.443 7.666 3.165 14.946 6.776 22.262 10.312 3.24 1.566 4.339 4.019 4.377 7.604.182 17.12.757 34.236.9 51.355.422 50.411.716 100.823 1.03 151.235.05 7.884-.023 7.952-8.177 7.902-50.412-.311-100.824-.655-151.235-.988-3.829-.025-7.657-.044-11.486-.066-.014-71.647-.028-143.294.317-215.5 8.678-4.322 17.042-7.991 25.297-11.89 4.216-1.992 5.425-.375 5.29 3.658-.353 10.465-.855 20.93-.955 31.398-.413 43.114-.72 86.229-1.018 129.344-.086 12.326-.037 24.653-.006 36.98.016 6.833.227 7.058 7.026 7.063 32.316.02 64.632.01 96.948.008.999 0 1.998-.051 2.997-.045 2.663.019 4.08-1.16 3.85-3.95m709.254 36.934c-.013-30.315-.026-60.63.358-91.58 3.027-.875 5.657-1.34 8.283-1.32 34.42.282 68.838.799 103.257.925 45.43.167 90.86.036 136.29.053 2.826 0 5.65.173 8.476.266 0 0 .08-.05.076.37.055 5.918.153 11.414.162 16.91.012 8.423-.014 8.438-8.665 8.439q-104.466.004-208.932.005c-2 0-4 .065-5.998.041-2.849-.035-4.35 1.232-4.344 4.183q.03 14.745-.003 29.489c-.007 2.916 1.404 4.272 4.288 4.24 2-.024 3.999.043 5.998.043 69.144.002 138.288-.002 207.432.014 2.995 0 5.99.173 8.986.266 0 0 .08-.05.076.37.374 7.219.64 14.026 1.167 20.813.355 4.559-1.05 6.612-6.058 6.605-83.616-.126-167.233-.114-250.849-.132m-1-106c-.014-23.314-.028-46.627.323-70.486 8.369-4.926 16.456-9.163 24.352-13.73 6.95-4.018 13.817-7.713 22.232-7.761 36.291-.208 72.582-.58 108.87-.99 7.639-.086 15.271-.817 22.908-.856 24.156-.126 48.313-.043 72.47-.101 3.41-.008 4.804 1.52 4.75 4.852-.087 5.33-.143 10.665.022 15.991.123 3.993-1.797 5.128-5.487 5.178-16.8.226-33.596.784-50.396.937-46.452.423-92.905.648-139.356 1.144-3.52.038-7.204 1.165-10.496 2.54-5.194 2.17-10.09 5.042-15.17 7.496-2.87 1.386-4.259 3.414-4.13 6.681.16 3.992.004 7.995.024 11.993.061 12.121-1.05 11.214 10.932 11.162 68.944-.3 137.887-.655 206.831-.97 2.995-.014 5.99.171 8.985.264 0 0 .079-.05.074.358-.28 6.872-.65 13.334-.805 19.801-.174 7.258-.336 7.603-7.713 7.542-35.944-.294-71.887-.803-107.831-.94-47.13-.18-94.26-.083-141.389-.105m-378.048-48.05c-.14-.265-.326-.492-.932-1.083-7.271-5.563-14.167-10.726-21.063-15.888 0 0-.025.053-.18-.235-3.045-2.447-5.932-4.606-8.82-6.765 0 0-.025.053-.176-.23-1.71-1.445-3.267-2.608-4.825-3.77 0 0-.024.053-.18-.235-4.044-3.114-7.931-5.94-11.819-8.765 0 0-.025.053-.176-.23-1.71-1.445-3.267-2.608-4.825-3.77 0 0-.024.053-.18-.235-5.713-4.457-11.269-8.626-16.825-12.794-.611-.748-1.223-1.496-1.639-2.755 8.49-5.99 17.031-11.136 24.996-17.058 5.563-4.136 10.366-5.108 15.56.01 0 0 .021-.056.18.237 5.98 4.506 11.802 8.718 17.625 12.93 0 0-.023.038.104.355 1.718 1.427 3.309 2.536 4.9 3.645 0 0-.027.035.1.355 3.049 2.428 5.972 4.537 8.896 6.645 0 0-.023.038.104.355 1.718 1.427 3.309 2.536 4.9 3.645 0 0-.025.035.1.354 1.718 1.428 3.309 2.537 4.9 3.646 0 0-.027.035.1.355 3.049 2.428 5.972 4.537 8.896 6.645 0 0-.023.038.104.355 1.718 1.427 3.309 2.536 4.9 3.645 0 0-.025.035.1.354 1.718 1.428 3.309 2.537 4.9 3.646 0 0-.027.035.1.355 4.382 3.428 8.639 6.537 12.896 9.645 0 0-.023.038.104.355 1.718 1.427 3.309 2.536 4.9 3.645 0 0-.027.035.1.355 3.049 2.428 5.972 4.537 8.896 6.645 0 0-.023.038.104.355 1.718 1.427 3.309 2.536 4.9 3.645 0 0-.027.035.1.355 3.049 2.428 5.972 4.536 8.896 6.645 0 0-.023.038.104.355 1.718 1.427 3.309 2.536 4.9 3.645 0 0-.025.035.1.354 1.718 1.428 3.309 2.537 4.9 3.646 0 0-.027.035.1.355 3.285 2.935 6.411 5.595 9.679 8.068.224.17 1.502-1.054 2.29-1.629.072-11.684.143-23.369.436-35.772.335-1.562.45-2.405.565-3.247.071-11.012.142-22.023.435-33.753.335-1.562.45-2.405.565-3.247.071-11.011.142-22.023.446-33.744 1.304-5.24 3.934-3.285 6.133-1.981 8.22 4.876 16.37 9.868 24.547 14.817.139.264.324.491.918 1.18.615 2.79 1.079 5.079 1.086 7.37.058 19.616.035 39.233.035 58.85 0 32.75.015 65.501-.043 98.252-.004 2.23-.566 4.46-.931 7.154-2.764-1.39-4.372-2.2-5.981-3.008 0 0-.025.053-.181-.235-5.71-4.447-11.265-8.606-16.82-12.765 0 0-.024.053-.175-.23-1.71-1.445-3.267-2.608-4.825-3.77 0 0-.024.053-.18-.235-5.71-4.447-11.265-8.606-16.82-12.765 0 0-.024.053-.18-.235-3.044-2.447-5.931-4.606-8.82-6.765 0 0-.024.053-.18-.235-2.71-2.113-5.264-3.94-7.819-5.765 0 0-.025.053-.181-.235-4.38-3.457-8.602-6.626-12.825-9.794-.14-.265-.325-.492-.931-1.083-7.271-5.563-14.167-10.726-21.063-15.888 0 0-.025.053-.18-.235-3.045-2.447-5.933-4.606-8.82-6.765 0 0-.025.053-.18-.235-3.045-2.447-5.932-4.606-8.82-6.765 0 0-.025.053-.181-.235-4.046-3.124-7.936-5.959-11.825-8.794m289.049-26.379c11.138-6.323 22.249-12.18 34.188-18.475.32 2.504.67 4.055.691 5.61.369 26.637.848 53.274.993 79.913.17 30.998-.073 61.999.084 92.997.088 17.473.674 34.942.925 52.415.098 6.793-.22 7.19-7.053 6.977-9.46-.294-18.908-.964-28.722-1.703-.334-17.261-.307-34.293-.306-52.116a21 21 0 0 0-.795-3.184c-.011-53.99-.022-107.98-.005-162.434"/></svg>