<svg version="1.1" id="Layer_1" xmlns="http://www.w3.org/2000/svg" xmlns:xlink="http://www.w3.org/1999/xlink" x="0px" y="0px"
	  viewBox="-200 -200 2000 2000" enable-background="new 0 0 1619 2000" xml:space="preserve">
<path fill="#214185" opacity="1.000000" stroke="none" 
	d="
M1533.092896,928.939331 
	C1533.033325,919.597717 1532.973755,910.256165 1532.888550,900.123596 
	C1532.606201,898.534851 1532.349487,897.737122 1532.092773,896.939331 
	C1532.033203,887.597717 1531.973633,878.256165 1531.888428,868.123596 
	C1531.606201,866.534851 1531.349487,865.737122 1531.092773,864.939331 
	C1531.033203,852.931091 1530.973633,840.922791 1530.888428,828.123596 
	C1530.606201,826.534851 1530.349487,825.737122 1530.092773,824.939331 
	C1530.067627,812.307739 1530.042603,799.676086 1530.341797,786.704590 
	C1547.526611,796.511047 1564.362671,806.698059 1581.257324,816.786865 
	C1590.038086,822.030334 1598.922607,827.100159 1607.760254,832.248413 
	C1607.760254,832.248352 1607.820679,832.209717 1607.822998,832.639526 
	C1607.883667,835.900574 1607.992554,838.731812 1607.992676,841.563049 
	C1608.000488,1090.373169 1608.002563,1339.183350 1607.991943,1587.993530 
	C1607.991455,1600.021729 1608.971436,1598.991089 1596.886353,1598.991333 
	C1069.435547,1599.001343 541.984680,1599.000122 14.533814,1598.998901 
	C12.534060,1598.998901 10.528298,1598.878906 8.535800,1598.994873 
	C4.404279,1599.235107 2.778526,1597.231812 3.000570,1593.267822 
	C3.112221,1591.274780 3.000964,1589.269409 3.000931,1587.269653 
	C2.999629,1509.110229 3.012160,1430.950928 2.950119,1352.791504 
	C2.947793,1349.860718 2.222487,1346.930542 1.874365,1343.532715 
	C1.939868,1270.475586 1.972103,1197.885864 1.948837,1125.296021 
	C1.948272,1123.530518 1.330108,1121.765381 0.999999,1120.000000 
	C1.000000,1026.312500 1.000000,932.624878 1.295580,838.304932 
	C2.358865,837.033813 3.072151,836.311890 3.902158,835.768188 
	C30.602917,818.275818 57.310310,800.793579 84.041412,783.347656 
	C85.184853,782.601379 86.563599,782.215698 88.504341,781.369019 
	C88.715942,783.812866 88.975700,785.415955 88.976135,787.019165 
	C88.994865,855.172913 88.969978,923.326721 89.046432,991.480408 
	C89.050468,995.077454 87.747620,997.303772 84.757515,999.198547 
	C77.733650,1003.649353 71.106392,1008.761353 63.908630,1012.891113 
	C58.404327,1016.049316 56.870003,1020.085266 56.875515,1026.243774 
	C57.030678,1199.544189 56.999886,1372.844849 57.001053,1546.145386 
	C57.001122,1555.992554 57.006943,1555.998901 66.764061,1555.998901 
	C560.337402,1556.000000 1053.910645,1556.000000 1547.484009,1555.997681 
	C1549.316772,1555.997681 1551.149780,1555.943970 1552.982422,1555.951538 
	C1555.645020,1555.962646 1557.063354,1554.792236 1556.834229,1552.000000 
	C1556.889160,1549.836548 1556.992065,1547.673218 1556.992188,1545.509766 
	C1556.999756,1372.811890 1556.999146,1200.114136 1556.995361,1027.416260 
	C1556.995361,1025.584717 1556.942139,1023.753235 1556.881836,1021.101440 
	C1555.581787,1018.825134 1554.313721,1017.369141 1553.045776,1015.913208 
	C1553.045776,1015.913208 1553.020142,1015.965942 1552.863770,1015.677856 
	C1547.484619,1011.554443 1542.261719,1007.719177 1537.038940,1003.883911 
	C1536.330566,998.558594 1535.622192,993.233215 1534.888428,987.120239 
	C1534.606201,985.534851 1534.349487,984.737122 1534.092773,983.939331 
	C1534.033203,966.931091 1533.973633,949.922791 1533.888550,932.123596 
	C1533.606323,930.534851 1533.349609,929.737061 1533.092896,928.939331 
z"/>
<path fill="#214185" opacity="1.000000" stroke="none" 
	d="
M19.039255,65.884888 
	C19.039255,65.884888 18.947880,65.428062 18.901855,64.813889 
	C16.601309,56.112785 14.346790,48.025852 12.092270,39.938923 
	C12.040569,39.501659 11.988869,39.064400 11.896833,37.907921 
	C10.601755,32.772114 9.347013,28.355518 8.092269,23.938923 
	C8.040470,23.509201 7.988671,23.079479 7.896596,21.932508 
	C6.237546,14.476840 4.618773,7.738420 3.000000,1.000000 
	C537.361389,1.000000 1071.722778,1.000000 1606.527832,1.412186 
	C1606.785645,2.968056 1606.677124,4.130759 1606.401978,5.252575 
	C1601.739746,24.263515 1596.952759,43.244873 1592.461060,62.295887 
	C1591.498169,66.380089 1589.175415,67.078888 1585.639282,67.017441 
	C1563.372437,66.630554 1541.104614,66.279778 1518.836060,66.011673 
	C1485.587158,65.611366 1452.337524,65.289261 1419.088135,64.933884 
	C1419.031372,58.260410 1418.974731,51.586941 1418.878174,44.065865 
	C1418.274414,38.742390 1414.709839,40.050182 1412.201050,40.064667 
	C1369.399658,40.311810 1326.599487,40.822613 1283.797974,40.969803 
	C1162.504883,41.386921 1041.211426,41.697609 919.917847,41.989742 
	C767.127502,42.357735 614.337158,42.729919 461.546570,42.974876 
	C375.221680,43.113274 288.896393,42.999699 202.571274,43.001862 
	C200.571625,43.001911 198.570633,43.081573 196.572632,43.030743 
	C193.441666,42.951099 191.987442,44.404697 192.027054,47.550274 
	C192.079514,51.715511 192.027786,55.882401 191.991959,60.048336 
	C191.934357,66.750496 191.733353,66.986435 184.830704,66.988319 
	C131.835754,67.002747 78.840790,67.009605 25.845913,66.948601 
	C23.576622,66.945984 21.308123,66.255135 19.039255,65.884888 
z"/>


<path fill="#214185" opacity="1.000000" stroke="none" 
	d="
M1422.088135,312.933868 
	C1422.037476,312.498291 1421.986816,312.062714 1421.899414,310.979858 
	C1421.606079,309.534851 1421.349365,308.737122 1421.092773,307.939392 
	C1421.033936,306.560120 1420.974976,305.180908 1420.889404,303.067139 
	C1420.606079,301.534851 1420.349487,300.737091 1420.092773,299.939362 
	C1420.033813,298.560120 1419.974976,297.180908 1419.889404,295.067139 
	C1419.606079,293.534851 1419.349365,292.737122 1419.092773,291.939392 
	C1419.040771,291.507843 1418.988770,291.076324 1418.887451,289.931519 
	C1418.538208,285.374084 1415.550537,286.008484 1413.201416,286.048767 
	C1398.397095,286.302460 1383.595825,286.861023 1368.791138,286.966309 
	C1310.660645,287.379547 1252.529053,287.617523 1194.398315,288.008698 
	C1157.097412,288.259644 1119.797729,288.679565 1082.497192,288.989868 
	C1073.008911,289.068817 1072.978882,289.009735 1073.004761,298.622681 
	C1073.330078,419.579285 1073.632446,540.536011 1074.007446,661.492432 
	C1074.287842,751.953003 1074.766724,842.413025 1074.970093,932.873718 
	C1075.166748,1020.360657 1075.135620,1107.848145 1075.064819,1195.335205 
	C1075.063965,1196.523926 1073.377441,1198.558472 1072.236084,1198.748779 
	C1067.828247,1199.483765 1063.323853,1199.924316 1058.852417,1199.951172 
	C992.389404,1200.349976 925.926147,1200.712524 859.462524,1200.988037 
	C768.169067,1201.366577 676.875427,1201.674194 585.581665,1201.986328 
	C570.750671,1202.037109 555.919250,1201.954590 541.088013,1201.933716 
	C541.029968,1163.260620 540.971985,1124.587402 540.888428,1085.123291 
	C540.606140,1083.534668 540.349426,1082.737061 540.092651,1081.939331 
	C540.061768,1071.951538 540.004456,1061.963867 540.003967,1051.976074 
	C539.997742,931.451416 540.000671,810.926758 539.996399,690.402100 
	C539.996277,687.239563 539.942627,684.077087 539.888428,680.123596 
	C539.606140,678.534851 539.349365,677.737061 539.092651,676.939270 
	C539.061707,618.543091 539.034851,560.146912 538.998230,501.750763 
	C538.979065,471.138702 538.942627,440.526611 538.888428,409.123566 
	C538.606140,407.534821 538.349426,406.737061 538.092712,405.939331 
	C538.033020,369.271271 537.973389,332.603241 537.875977,295.076721 
	C537.274719,289.742920 533.713196,291.062286 531.201599,291.060822 
	C420.219513,290.995453 309.237335,291.004822 198.255188,291.007355 
	C197.422195,291.007385 196.588867,291.059723 195.756287,291.047424 
	C192.729904,291.002808 191.175705,292.339752 191.025681,295.504395 
	C190.837143,299.481201 190.349442,303.443115 190.028244,307.414459 
	C189.452576,314.531738 189.025665,314.985321 181.923279,314.989532 
	C151.428192,315.007690 120.929634,314.751038 90.440453,315.176178 
	C82.921875,315.281067 77.450706,314.379395 76.092255,305.938904 
	C76.036240,305.197052 75.980225,304.455231 75.890564,302.952881 
	C74.601990,297.774536 73.347054,293.356689 72.092117,288.938873 
	C72.036125,288.197388 71.980125,287.455902 71.890060,285.957764 
	C70.601372,280.780396 69.346741,276.359619 68.092117,271.938873 
	C68.040344,271.501648 67.988564,271.064423 67.896637,269.907959 
	C66.601753,264.772125 65.347015,260.355530 64.092278,255.938950 
	C64.036224,255.197708 63.980171,254.456451 63.893486,253.023895 
	C63.606152,251.534851 63.349445,250.737106 63.092743,249.939377 
	C63.078796,248.906433 63.064850,247.873489 63.531830,246.437256 
	C235.579758,246.023727 407.146759,246.013306 578.713745,246.006622 
	C579.879150,246.006577 581.306396,245.643524 582.151672,246.177582 
	C583.599182,247.092209 585.287781,248.387817 585.769409,249.880264 
	C586.404724,251.848816 585.996399,254.161774 585.996521,256.326660 
	C586.000549,343.942474 585.999817,431.558258 586.001404,519.174072 
	C586.001404,521.172852 586.091125,523.174194 586.016113,525.169739 
	C585.889832,528.525146 587.402893,530.013672 590.788513,529.998230 
	C596.448914,529.972351 602.110168,530.143738 607.796753,530.214722 
	C607.822388,530.197266 607.783020,530.148193 607.804199,530.607910 
	C607.883545,543.891052 607.988281,556.714478 607.992126,569.537903 
	C608.010742,631.332581 608.034546,693.127258 607.935059,754.921753 
	C607.927979,759.319153 608.623047,762.403198 613.713745,762.885132 
	C618.832458,763.369751 623.928345,764.097839 629.032043,764.737427 
	C631.897644,765.096436 633.051392,763.754639 632.873901,760.531616 
	C632.942078,758.233032 632.995300,756.401550 632.995361,754.570068 
	C632.999268,576.876465 632.999573,399.182861 632.992310,221.489258 
	C632.992188,219.325882 632.889099,217.162506 632.836426,214.610580 
	C631.798706,213.181992 630.880127,211.433502 629.696472,211.230423 
	C625.619873,210.531097 621.452576,210.078278 617.316406,210.050766 
	C557.216919,209.650925 497.117035,209.299362 437.016907,209.009064 
	C360.261078,208.638321 283.504944,208.337601 206.749054,207.986099 
	C203.258987,207.970123 199.720627,208.068481 196.294220,207.536942 
	C192.930405,207.015091 192.072571,208.535248 192.052246,211.319122 
	C192.013351,216.648712 192.026398,221.978683 191.993515,227.308350 
	C191.947998,234.684662 191.694565,234.906418 184.434204,235.000809 
	C159.311813,235.327332 134.189636,235.672607 109.067451,236.014755 
	C108.068657,236.028366 107.070450,236.083374 106.071930,236.117981 
	C90.807030,236.646820 75.542130,237.175476 60.277229,237.704178 
	C60.277229,237.704178 60.116325,237.756744 60.108669,237.443024 
	C56.098110,224.065857 52.095203,211.002396 48.092300,197.938950 
	C48.040447,197.502060 47.988594,197.065155 47.896721,195.916992 
	C45.601894,187.783463 43.347092,180.361206 41.092293,172.938965 
	C41.082420,172.522781 41.072544,172.106598 41.532940,171.362198 
	C51.134281,170.689316 60.263691,170.102036 69.396690,170.039368 
	C128.822388,169.631622 188.248840,169.330093 247.675125,169.008789 
	C311.431335,168.664032 375.187256,168.181366 438.943939,168.040192 
	C515.218628,167.871277 591.494019,167.997528 667.769104,168.012039 
	C670.429932,168.012543 673.090820,168.185486 675.751648,168.278076 
	C675.751648,168.278076 675.831116,168.228867 675.828369,168.649078 
	C675.883728,172.066330 675.992432,175.063370 675.992615,178.060425 
	C676.001282,291.352173 675.988525,404.643921 676.015259,517.935669 
	C676.018433,531.393555 674.643494,529.902710 688.049622,529.992188 
	C696.987000,530.051819 696.997498,530.016052 696.997925,539.165588 
	C697.001038,609.306519 696.999573,679.447449 697.002075,749.588379 
	C697.002136,751.587463 697.073853,753.587219 697.038086,755.585388 
	C696.987366,758.421814 698.214600,759.821655 701.164185,760.008850 
	C707.951355,760.439697 714.730835,761.014893 721.503967,761.635132 
	C724.373657,761.897949 724.961609,760.341370 724.834167,757.997803 
	C724.889282,755.501099 724.992737,753.004395 724.992798,750.507690 
	C725.000244,547.481506 724.999878,344.455353 724.995972,141.429184 
	C724.995972,139.264511 724.942261,137.099854 724.878113,134.081741 
	C723.809814,132.182526 722.913513,130.458618 721.718689,130.218292 
	C718.155273,129.501495 714.476990,129.075623 710.839722,129.048401 
	C657.708008,128.650864 604.576172,128.233231 551.443542,128.025131 
	C446.984314,127.615990 342.524597,127.330338 238.065063,127.005325 
	C225.566635,126.966438 213.067978,126.999229 200.569427,127.002602 
	C199.236404,127.002960 197.901978,127.074944 196.570663,127.033813 
	C193.438812,126.937057 191.987320,128.407776 192.026978,131.552063 
	C192.079483,135.717209 192.027802,139.884018 191.991943,144.049866 
	C191.934296,150.750336 191.732925,150.986023 184.829437,150.988297 
	C138.168182,151.003586 91.506912,151.011459 44.845745,150.948441 
	C42.576435,150.945374 40.308052,150.255112 38.039238,149.884842 
	C38.039238,149.884842 37.947903,149.427368 37.905014,148.828934 
	C37.272144,146.133301 36.682159,144.036118 36.092178,141.938919 
	C36.036186,141.197021 35.980194,140.455124 35.890282,138.950394 
	C34.601608,133.438004 33.346859,128.688446 32.092110,123.938889 
	C32.036102,123.197670 31.980097,122.456444 31.893475,121.023926 
	C31.606148,119.534866 31.349442,118.737114 31.092735,117.939354 
	C31.040791,117.502022 30.988844,117.064697 30.897625,115.915482 
	C29.936325,112.115379 29.014297,109.027161 28.092274,105.938934 
	C28.036221,105.197701 27.980167,104.456474 27.893486,103.023933 
	C27.606150,101.534866 27.349443,100.737114 27.092737,99.939354 
	C27.040787,99.502045 26.988836,99.064728 26.899504,97.928963 
	C26.272141,95.133308 25.682159,93.036118 25.092178,90.938919 
	C25.078403,89.906082 25.064631,88.873238 25.531815,87.437164 
	C58.642387,86.689590 91.271255,86.213257 123.901772,86.027725 
	C197.353577,85.610085 270.806183,85.335968 344.258484,85.004494 
	C418.543884,84.669250 492.829010,84.221718 567.114746,84.034935 
	C632.263916,83.871124 697.413696,83.999275 762.563232,84.001610 
	C771.991882,84.001953 771.998657,84.010117 771.998779,93.680786 
	C772.000305,234.477051 771.999695,375.273315 772.002136,516.069580 
	C772.002136,518.402100 772.064270,520.734863 772.043945,523.067078 
	C772.017212,526.123352 773.566223,527.626770 776.541382,527.931274 
	C779.348755,528.218506 782.135254,528.799500 784.946533,528.942383 
	C793.978088,529.401245 793.996277,529.346130 793.996887,538.425598 
	C794.001526,609.240295 793.941101,680.055054 794.044373,750.869629 
	C794.067993,767.045105 791.309143,764.834656 808.984375,764.976318 
	C809.317322,764.979004 809.650635,764.945129 809.983582,764.948486 
	C812.646912,764.975159 814.063171,763.790405 813.834229,760.999146 
	C813.889465,756.011353 813.991394,751.023499 813.993164,746.035706 
	C814.018555,674.355286 814.030518,602.674927 814.529175,530.514160 
	C820.172241,530.010376 825.331909,529.960693 830.491455,529.973999 
	C833.206848,529.981018 835.106140,529.204285 834.834167,525.999146 
	C834.889465,522.504578 834.992554,519.009949 834.993164,515.515381 
	C835.017334,372.340210 835.032227,229.165054 835.446411,85.353836 
	C838.642334,84.478676 841.441162,84.020920 844.238037,84.032394 
	C915.175598,84.323273 986.112915,84.669609 1057.050293,84.993111 
	C1132.152344,85.335594 1207.254150,85.706230 1282.356323,85.989143 
	C1382.113037,86.364937 1481.869873,86.667709 1581.626709,87.002106 
	C1582.292969,87.004341 1582.965698,87.071480 1583.624634,87.004044 
	C1588.077637,86.548309 1588.581421,88.820107 1587.712891,92.491531 
	C1583.049194,112.207291 1578.498413,131.949738 1573.869019,151.673660 
	C1572.152222,158.987717 1572.100830,159.102905 1564.260254,158.970825 
	C1550.626831,158.741150 1536.997314,158.294708 1523.364502,158.017502 
	C1505.069214,157.645462 1486.771973,157.373108 1468.476440,157.010864 
	C1452.012939,156.684875 1435.550903,156.295364 1419.088135,155.933868 
	C1419.029907,148.934250 1418.971802,141.934647 1418.875977,134.076645 
	C1417.741821,128.058456 1413.548218,130.094040 1410.700928,130.092316 
	C1241.043091,129.989960 1071.385132,130.000076 901.727295,130.001160 
	C892.006775,130.001221 892.001160,130.007706 892.001099,139.893951 
	C892.000061,343.383392 892.000183,546.872864 892.001282,750.362305 
	C892.001282,751.862183 892.069275,753.363892 892.014648,754.861511 
	C891.900391,757.992859 893.034424,760.717590 896.445435,759.808472 
	C901.235107,758.531921 907.954224,764.224854 910.834167,755.999146 
	C910.889465,747.353333 910.989136,738.707458 910.992920,730.061646 
	C911.021179,665.372620 911.030518,600.683533 911.501343,535.512939 
	C918.655334,534.308899 925.378540,533.745239 932.027771,532.706665 
	C933.129395,532.534668 933.906921,530.287415 934.834229,528.999146 
	C934.889404,525.671936 934.992432,522.344727 934.993103,519.017517 
	C935.016663,403.343201 935.030518,287.668884 935.529297,171.514252 
	C1140.612183,171.022629 1345.211548,171.011246 1549.811035,171.000366 
	C1554.142944,171.000137 1558.475342,170.964569 1562.806641,171.018524 
	C1568.900146,171.094421 1569.611938,171.945206 1568.209229,177.792465 
	C1564.643188,192.658752 1560.971802,207.499786 1557.416260,222.368607 
	C1555.656982,229.725906 1555.493164,229.872528 1547.874878,230.008148 
	C1531.907715,230.292374 1515.942871,230.726486 1499.975098,230.954727 
	C1473.013672,231.340149 1446.050537,231.613419 1419.088135,231.933868 
	C1419.030029,226.600204 1418.971924,221.266525 1418.875977,215.075562 
	C1417.741821,209.058456 1413.548340,211.094681 1410.700806,211.092560 
	C1270.209473,210.987823 1129.718018,210.999924 989.226501,211.001907 
	C980.010559,211.002045 980.001709,211.012009 980.001587,220.394653 
	C979.999878,398.883850 980.000305,577.373047 980.003174,755.862244 
	C980.003174,757.528503 979.546997,759.427002 980.191467,760.800598 
	C980.948914,762.415039 982.575867,764.603027 984.003174,764.743896 
	C988.954651,765.232422 993.983093,764.932312 998.982178,764.950317 
	C1001.645508,764.959900 1003.063354,763.791565 1002.834167,760.999146 
	C1002.889465,756.011353 1002.991211,751.023499 1002.993042,746.035706 
	C1003.018494,674.355286 1003.030518,602.674927 1003.529297,530.514221 
	C1010.171997,530.010376 1016.331238,529.963928 1022.490356,529.973938 
	C1025.205566,529.978333 1027.106201,529.205200 1026.834229,525.999146 
	C1026.889526,522.839661 1026.992310,519.680176 1026.993164,516.520691 
	C1027.016846,427.678680 1027.030396,338.836670 1027.529053,249.514313 
	C1198.982178,249.023727 1369.951660,249.013382 1540.921143,249.005264 
	C1541.920776,249.005219 1542.920532,249.031113 1543.920044,249.053497 
	C1546.889771,249.120041 1548.055420,250.289764 1547.344849,253.490540 
	C1543.313965,271.648315 1539.335815,289.819183 1535.568481,308.032928 
	C1534.756348,311.959137 1532.852661,313.063232 1529.067993,313.050446 
	C1493.408325,312.929718 1457.748169,312.952515 1422.088135,312.933868 
z"/>
<path fill="#214185" opacity="1.000000" stroke="none" 
	d="
M1419.834839,878.022705 
	C1419.906128,858.011292 1419.977539,837.999939 1420.269775,817.269531 
	C1420.605469,815.707886 1420.720215,814.865295 1420.834961,814.022705 
	C1420.906250,793.677979 1420.977539,773.333252 1421.269775,752.269531 
	C1421.605469,750.707886 1421.720215,749.865295 1421.834839,749.022705 
	C1421.905029,739.346924 1421.975220,729.671143 1422.412598,719.579956 
	C1429.785400,723.287537 1436.865723,727.289246 1443.782227,731.556763 
	C1462.876465,743.338318 1481.902100,755.231079 1500.954956,767.079895 
	C1500.954956,767.079895 1500.975464,767.025146 1501.119751,767.413208 
	C1501.509399,771.098877 1501.968872,774.396484 1501.969360,777.694092 
	C1502.002808,1023.342102 1502.003662,1268.990112 1501.989624,1514.638184 
	C1501.989014,1527.076660 1503.107666,1525.989990 1490.741455,1525.990356 
	C1033.609497,1526.001831 576.477539,1526.000122 119.345573,1525.999390 
	C117.345749,1525.999390 115.332703,1526.127930 113.350037,1525.940430 
	C111.562462,1525.771362 109.808159,1525.250610 108.039185,1524.884888 
	C108.026123,1396.894043 108.013702,1268.903198 107.996437,1140.912354 
	C107.995987,1137.579712 107.942665,1134.246948 107.888405,1130.123291 
	C107.606102,1128.534668 107.349388,1127.737061 107.092682,1126.939331 
	C107.061798,1063.741577 107.034111,1000.543823 106.996834,937.346069 
	C106.990654,926.868896 106.942665,916.391724 106.888428,905.123596 
	C106.606133,903.534851 106.349419,902.737122 106.092690,901.939331 
	C106.077202,858.290771 106.061722,814.642212 106.412193,770.449829 
	C110.901192,767.769653 115.040947,765.664917 119.144501,763.491760 
	C142.055801,751.358521 164.933487,739.161438 187.880417,727.096008 
	C193.988403,723.884399 194.962372,724.589050 194.984299,731.589294 
	C195.023987,744.254272 194.999680,756.919495 194.999786,769.584595 
	C195.000183,820.578308 194.910660,871.572327 195.116409,922.565186 
	C195.141113,928.682678 193.665268,932.848511 188.160187,936.101807 
	C182.179352,939.636353 177.027435,944.555054 171.119568,948.237183 
	C166.071976,951.383057 164.880478,955.391174 164.885330,961.081177 
	C165.027328,1127.560547 164.999847,1294.039917 165.001495,1460.519409 
	C165.001587,1469.991699 165.009735,1469.998901 174.639343,1469.998901 
	C596.253967,1470.000122 1017.868652,1469.999878 1439.483276,1469.997681 
	C1441.316162,1469.997681 1443.149170,1469.944092 1444.981934,1469.951660 
	C1447.644653,1469.962646 1449.063477,1468.792725 1448.834229,1466.000000 
	C1448.889282,1463.670166 1448.992676,1461.340332 1448.992798,1459.010498 
	C1449.000366,1294.315430 1449.000000,1129.620239 1448.996094,964.925110 
	C1448.996094,962.927185 1448.942505,960.929321 1448.865845,958.112793 
	C1448.585571,956.687378 1448.533813,955.789856 1448.094238,955.516724 
	C1439.102539,949.929626 1430.066284,944.414001 1421.039062,938.884033 
	C1420.362671,936.558594 1419.122070,934.238525 1419.100098,931.906982 
	C1418.943604,915.268799 1419.035889,898.628296 1419.269775,881.269531 
	C1419.605469,879.707886 1419.720093,878.865295 1419.834839,878.022705 
z"/>
<path fill="#214185" opacity="1.000000" stroke="none" 
	d="
M1342.834229,1388.000000 
	C1342.889404,1385.670166 1342.992798,1383.340454 1342.992920,1381.010620 
	C1343.000488,1219.982178 1343.000122,1058.953735 1342.996216,897.925293 
	C1342.996094,895.927429 1342.942383,893.929565 1342.864746,891.110962 
	C1341.315796,888.908203 1340.033813,887.081665 1338.278442,886.220703 
	C1330.271240,882.293762 1322.131348,878.638000 1314.039062,874.884766 
	C1314.042236,847.919373 1314.045532,820.953918 1314.269775,793.269531 
	C1314.605347,791.707886 1314.720093,790.865295 1314.834717,790.022705 
	C1314.906128,765.011292 1314.977417,739.999939 1315.269775,714.269531 
	C1315.605347,712.707886 1315.720093,711.865295 1315.834961,711.022705 
	C1315.905151,694.346741 1315.975342,677.670715 1316.433350,660.544373 
	C1318.809937,660.896362 1320.965454,661.429626 1322.762695,662.542053 
	C1345.223633,676.445435 1367.498901,690.655884 1390.152954,704.235107 
	C1395.545166,707.467285 1397.116089,711.010803 1397.112793,716.980103 
	C1396.980225,956.425415 1397.000122,1195.870850 1396.998779,1435.316162 
	C1396.998779,1444.993530 1396.991943,1445.020508 1387.065796,1444.996094 
	C1254.457764,1444.669556 1121.849731,1444.349976 989.241699,1443.998047 
	C871.296875,1443.685059 753.352295,1443.313232 635.407471,1443.005493 
	C498.300507,1442.647705 361.193420,1442.331543 224.086395,1441.994751 
	C222.753586,1441.991577 221.420853,1441.954834 220.088089,1441.933716 
	C220.059021,1439.934326 220.004532,1437.934937 220.004501,1435.935547 
	C220.000687,1193.287964 220.000854,950.640442 220.002838,707.992920 
	C220.002853,706.326477 220.031158,704.660095 220.412155,702.449829 
	C226.945358,698.647217 233.155182,695.466125 239.271942,692.115173 
	C257.500214,682.128967 275.656860,672.011414 293.920410,662.090515 
	C299.057190,659.300171 299.901154,659.936707 299.981964,665.752808 
	C300.338043,691.384766 300.614563,717.017944 301.020813,742.649109 
	C301.221069,755.286438 301.749878,767.918640 301.938324,780.556030 
	C302.352844,808.353210 302.612152,836.152649 303.029877,863.949768 
	C303.082703,867.464172 301.964600,869.843933 298.903046,871.780579 
	C291.595520,876.403076 284.702057,881.712463 277.228333,886.029419 
	C271.615723,889.271240 269.850128,893.288147 269.857422,899.728882 
	C270.039398,1060.524170 269.999878,1221.319580 270.001038,1382.114990 
	C270.001129,1391.992554 270.006805,1391.998901 279.732880,1391.998901 
	C630.983459,1392.000000 982.234009,1392.000000 1333.484619,1391.997681 
	C1335.317261,1391.997681 1337.150146,1391.944092 1338.982666,1391.951538 
	C1341.645142,1391.962402 1343.063477,1390.792114 1342.834229,1388.000000 
z"/>
<path fill="#214185" opacity="1.000000" stroke="none" 
	d="
M1208.039062,811.884033 
	C1207.361450,809.389160 1206.095215,806.895081 1206.091919,804.399292 
	C1205.998413,733.931335 1206.032349,663.463318 1206.415039,592.579346 
	C1208.148560,592.772888 1209.573730,593.273865 1210.866577,594.007874 
	C1230.672485,605.253235 1250.426880,616.589783 1270.274536,627.760864 
	C1276.306152,631.155640 1282.583740,634.113342 1288.748657,637.271301 
	C1288.748657,637.271301 1288.826172,637.226929 1288.825806,637.648132 
	C1288.883667,640.733643 1288.992676,643.397949 1288.992798,646.062256 
	C1289.000610,883.524048 1289.001587,1120.985840 1288.994751,1358.447632 
	C1288.994385,1369.809937 1289.802856,1368.994507 1278.433472,1368.994751 
	C962.151001,1369.001343 645.868591,1369.000122 329.586121,1368.997314 
	C327.086792,1368.997314 324.587433,1368.955811 322.088104,1368.933716 
	C322.058899,1366.767700 322.004181,1364.601562 322.004150,1362.435547 
	C322.000366,1124.120117 322.000488,885.804626 322.002594,647.489136 
	C322.002625,645.656067 322.032471,643.822998 322.365051,641.360962 
	C334.877533,633.591614 347.062592,626.432861 359.271942,619.315796 
	C373.491302,611.027039 387.723114,602.759521 401.977173,594.530701 
	C403.357086,593.734070 404.931519,593.274292 406.415649,592.658203 
	C406.939819,594.297241 407.920471,595.935669 407.922333,597.575317 
	C407.998993,664.905823 407.963257,732.236389 408.052826,799.566833 
	C408.057770,803.295532 406.629547,805.354004 403.386566,806.883362 
	C396.459686,810.149963 389.831146,814.116272 382.743408,816.954468 
	C376.459259,819.470947 374.846313,823.358521 374.854218,829.914795 
	C375.042175,986.074829 374.999817,1142.235107 375.001312,1298.395386 
	C375.001404,1307.990723 375.008636,1307.998779 384.516724,1307.998779 
	C664.171936,1308.000244 943.827087,1308.000000 1223.482300,1307.997681 
	C1225.315308,1307.997681 1227.148560,1307.943970 1228.981445,1307.951538 
	C1231.644165,1307.962646 1233.063477,1306.793091 1232.834229,1304.000000 
	C1232.889526,1271.812378 1232.943848,1239.624634 1233.001221,1207.437012 
	C1233.008057,1203.620850 1233.032471,1199.804810 1233.269775,1195.269653 
	C1233.605469,1193.708130 1233.720215,1192.865479 1233.834961,1192.022949 
	C1233.889893,1188.863037 1233.992310,1185.703125 1233.993286,1182.543213 
	C1234.018066,1092.358276 1234.032471,1002.173401 1234.269775,911.269531 
	C1234.605469,909.707886 1234.720215,908.865295 1234.834961,908.022705 
	C1234.861206,882.658875 1234.887451,857.294983 1234.866211,831.113281 
	C1234.336914,829.487854 1234.051880,828.374634 1233.343750,827.919250 
	C1224.945435,822.517334 1216.484009,817.213562 1208.039062,811.884033 
z"/>
<path fill="#214185" opacity="1.000000" stroke="none" 
	d="
M1108.038940,753.883911 
	C1107.899536,753.619324 1107.714111,753.392395 1107.112061,752.806396 
	C1105.174072,751.234375 1103.606445,750.059082 1102.038818,748.883789 
	C1101.899292,748.619385 1101.713745,748.392456 1101.112061,747.806335 
	C1099.174072,746.234375 1097.606445,745.059082 1096.038818,743.883789 
	C1095.694580,741.778442 1095.051025,739.673218 1095.049805,737.567627 
	C1095.010132,669.709900 1095.032593,601.852234 1095.444092,533.529907 
	C1097.376343,533.597717 1098.986694,533.975037 1100.431885,534.687683 
	C1109.784546,539.299500 1119.109497,543.967834 1128.427856,548.648743 
	C1146.609009,557.781677 1164.779785,566.934998 1182.954956,576.079895 
	C1182.954956,576.079895 1182.975464,576.025146 1183.119751,576.413208 
	C1183.509399,579.932373 1183.968994,583.063416 1183.969482,586.194580 
	C1184.002930,813.853699 1184.000244,1041.512817 1183.999512,1269.171875 
	C1183.999390,1279.996094 1183.995605,1279.999512 1173.062622,1279.999634 
	C927.737427,1280.000244 682.412292,1280.000244 437.087097,1279.997314 
	C434.754089,1279.997192 432.421112,1279.955811 430.088104,1279.933716 
	C430.059021,1277.934326 430.004547,1275.934937 430.004517,1273.935547 
	C430.000671,1044.954712 430.000824,815.973755 430.002777,586.992859 
	C430.002777,585.326416 430.031128,583.660034 430.410706,581.447510 
	C448.408264,570.882324 466.037292,560.855957 483.676422,550.847412 
	C491.156799,546.603027 498.658325,542.396057 507.375000,537.481628 
	C507.636261,541.088501 507.974823,543.592163 507.975983,546.095886 
	C508.005524,609.256165 507.999664,672.416443 507.999969,735.576721 
	C508.000031,750.934570 508.108215,751.130066 494.632202,758.589844 
	C489.069885,761.669006 486.838959,765.365112 486.847809,771.970520 
	C487.046448,920.455261 486.999786,1068.940308 487.001343,1217.425293 
	C487.001434,1226.990967 487.008881,1226.998657 496.545624,1226.998657 
	C702.858093,1227.000244 909.170532,1227.000000 1115.483032,1226.997681 
	C1117.315918,1226.997559 1119.149048,1226.944092 1120.981812,1226.951660 
	C1123.644409,1226.962646 1125.063477,1225.792725 1124.834229,1223.000000 
	C1124.889282,1220.836914 1124.992310,1218.673706 1124.992432,1216.510620 
	C1124.999878,1069.477295 1124.999268,922.443909 1124.995483,775.410583 
	C1124.995361,773.579346 1124.942383,771.748108 1124.869141,769.101929 
	C1122.895874,766.485962 1120.967407,764.684937 1119.038940,762.883911 
	C1118.551392,762.341553 1118.063843,761.799194 1117.154907,760.828735 
	C1113.835327,758.228333 1110.937134,756.056091 1108.038940,753.883911 
z"/>


</svg>